<mxfile host="app.diagrams.net" modified="2024-03-05T13:44:09.000Z" agent="Mozilla/5.0 (Windows NT 10.0; Win64; x64) AppleWebKit/537.36 (KHTML, like Gecko) Chrome/121.0.0.0 Safari/537.36" version="22.1.15" etag="QvR7E60JvQbSTaHmP3UB" type="github">
  <diagram name="Page-1" id="Y_YzH0GMvcLSWiDCodFP">
    <mxGraphModel>
      <root>
        <mxCell id="0" />
        <mxCell id="1" parent="0" />
      </root>
    </mxGraphModel>
  </diagram>
</mxfile>
